<svg id="Capa_1" enable-background="new 0 0 512 512" height="512" viewBox="0 0 512 512" width="512" xmlns="http://www.w3.org/2000/svg"><g><path d="m241 370.5v53h15l4-26-4-27z" fill="#d0e8ff"/><path d="m256 370.5h15v53h-15z" fill="#9dcfff"/><path d="m30 87.827v297.673h226l28-162-28-135.673z" fill="#e6f8fc"/><path d="m256 87.827h226v297.673h-226z" fill="#d0e8ff"/><path d="m0 9.5v86h256l23-42-23-44z" fill="#6354b1"/><path d="m256 9.5h256v86h-256z" fill="#54469c"/><path d="m80 185.5h70v30h-70z" fill="#ff637b"/><path d="m80 125.5h137v30h-137z" fill="#ff637b"/><path d="m147.894 304.394 21.212 21.212 86.894-86.893 12-17.213-12-25.213z" fill="#00ddc0"/><path d="m359 125.5v30h32.787l-88.287 88.287-47.5-47.5v42.426l47.5 47.5 109.5-109.5v31.787h30v-83z" fill="#00b5bd"/><path d="m211 457.5c0 24.813 20.187 45 45 45l7-44-7-46c-24.813 0-45 20.187-45 45z" fill="#6354b1"/><path d="m301 457.5c0-24.813-20.187-45-45-45v90c24.813 0 45-20.187 45-45z" fill="#54469c"/></g></svg>