<?xml version="1.0" encoding="utf-8"?>
<!-- Generator: Adobe Illustrator 22.0.1, SVG Export Plug-In . SVG Version: 6.00 Build 0)  -->
<svg version="1.1" id="Capa_1" xmlns="http://www.w3.org/2000/svg" xmlns:xlink="http://www.w3.org/1999/xlink" x="0px" y="0px"
	 viewBox="0 0 154 135" enable-background="new 0 0 154 135" xml:space="preserve">
<g>
	<g>
		<linearGradient id="SVGID_1_" gradientUnits="userSpaceOnUse" x1="19" y1="67.5575" x2="134.1867" y2="67.5575">
			<stop  offset="0" style="stop-color:#F7931E"/>
			<stop  offset="1" style="stop-color:#F14B24"/>
		</linearGradient>
		<path fill="url(#SVGID_1_)" d="M129.8,71.1l-4.7-1.5c-0.6-0.2-1.1-0.7-1.3-1.3c-1-3.2-2.5-6.1-4.5-8.8c-0.9-1.2-1.9-2.4-3-3.5
			c0.7-3.1,1.1-6.5,1-9.5c-0.1-4.3-0.9-6.8-2.6-7.7c-0.9-0.5-3.7-1.9-18.6,4.9c-0.4,0.2-0.7,0.4-1,0.6c-1-0.3-2-0.5-3.1-0.7
			c-0.1,0-0.3-0.1-0.4-0.1c1.2-2.6,1.9-5.5,2.1-8.5c0-0.9-0.7-1.7-1.6-1.7c-0.9,0-1.7,0.7-1.7,1.6c-0.2,4.9-2.2,9.5-5.7,12.9
			c-2.1,2.1-4.5,3.6-7.1,4.5c-4.5-0.6-9-0.6-13.5,0c-2.6-0.9-5-2.4-7.1-4.5c-3.7-3.7-5.7-8.6-5.7-13.8c0-5.2,2-10.1,5.7-13.8
			c3.7-3.7,8.6-5.7,13.8-5.7s10.1,2,13.8,5.7c1.5,1.5,2.7,3.2,3.6,5c0.4,0.8,1.4,1.2,2.3,0.7c0.8-0.4,1.2-1.4,0.7-2.3
			c-1.1-2.2-2.5-4.2-4.3-5.9c-4.3-4.3-10.1-6.7-16.2-6.7S59,13.5,54.7,17.8C50.4,22.1,48,27.9,48,34s2.4,11.9,6.7,16.2
			c1.2,1.2,2.6,2.3,4,3.2c0,0,0,0,0,0c-1,0.3-2.1,0.6-3.1,0.9c-0.9,0.3-1.4,1.2-1.1,2.1c0.3,0.9,1.2,1.4,2.1,1.1
			c9.1-3.1,19.2-3.1,28.4,0c0.2,0.1,0.4,0.1,0.5,0.1c0.7,0,1.4-0.4,1.6-1.1c0.3-0.9-0.2-1.8-1.1-2.1c-1-0.3-2.1-0.6-3.1-0.9
			c0,0,0,0,0,0c1.4-0.9,2.8-2,4-3.2c1.1-1.1,2.1-2.3,2.9-3.6c0.5,0.1,0.9,0.2,1.4,0.3c0.6,0.1,1.2,0.3,1.8,0.4c0,0.1,0,0.1-0.1,0.2
			c-0.8,3.9-0.8,7.3,0.2,10.2c0.8,2.6,2.3,4.7,4.4,6.2c2.5,1.8,5.5,2.6,8.3,2.6c2.1,0,4-0.4,5.3-1.2c1.6-0.9,2.9-2.8,3.9-5.6
			c0.5,0.6,0.9,1.1,1.4,1.7c1.7,2.4,3.1,5,4,7.9c0.5,1.7,1.8,3,3.4,3.5l4.7,1.5c1.2,0.4,2.1,1.5,2.1,2.8V85c0,1.3-0.8,2.4-2.1,2.8
			l-7.6,2.4c-1.2,0.4-2.2,1.2-2.9,2.4c-3,5.2-7.7,9.4-14,12.7c-0.7,0.4-1.2,1.1-1.4,1.9l-2.4,12.9c-0.1,0.4-0.4,0.6-0.7,0.6h-7.9
			c-0.4,0-0.7-0.3-0.7-0.6l-1.3-7.1c-0.3-1.4-1.6-2.3-3-2.1c-3.4,0.5-6.9,0.8-10.4,0.8c-2.6,0-5.2-0.1-7.7-0.4
			c-1.4-0.2-2.6,0.8-2.9,2.1l-1.3,6.8c-0.1,0.4-0.4,0.6-0.7,0.6h-7.9c-0.4,0-0.7-0.3-0.7-0.6l-2.3-12.2c-0.2-0.8-0.6-1.5-1.4-1.8
			C40.7,100.3,35,90.8,35,78.4c0-6.2,1.4-11.7,4.1-16.4c2.5-4.3,6.2-7.9,10.9-10.6c0.8-0.5,1.1-1.5,0.6-2.3
			c-0.5-0.8-1.5-1.1-2.3-0.6C39.1,53.8,33.6,62,32.1,72.3v0c-0.2,0-0.3,0-0.5,0c0-1.1-0.2-2.2-0.6-3.3c-1-2.4-3-4.2-5.1-4.4
			c-1.7-0.2-3.3,0.5-4.4,1.9c-1.6,2.1-1.3,3.8-0.8,4.8c0.8,1.7,3,3,6.6,3.7c-0.1,0.1-0.2,0.3-0.3,0.4c-2.1,2.7-4.6,3.3-6.3,3.3
			c-1,0-1.7,0.8-1.7,1.8v0c0,0.9,0.7,1.7,1.7,1.8c0.1,0,0.2,0,0.4,0c2.1,0,5.4-0.8,8.5-4.7c0.5-0.6,0.9-1.3,1.2-2
			c0.3,0,0.6,0.1,0.9,0.1c0,0,0,0,0,0c-0.1,0.9-0.1,1.8-0.1,2.8c0,7,1.7,13.2,4.9,18.5c3,4.9,7.4,8.9,12.9,11.9l2.3,11.8
			c0.4,1.9,2.1,3.3,4,3.3h7.9c2,0,3.7-1.4,4-3.3l1.2-6.1c2.4,0.3,4.9,0.4,7.4,0.4c3.5,0,6.9-0.2,10.3-0.7l1.2,6.5
			c0.4,1.9,2.1,3.3,4,3.3h7.9c2,0,3.7-1.4,4-3.3l2.4-12.6c6.7-3.5,11.7-8.2,15-13.8c0.2-0.4,0.6-0.7,1-0.8l7.6-2.4
			c2.6-0.8,4.4-3.3,4.4-6v-7.8C134.2,74.4,132.4,72,129.8,71.1z M113.8,51.2c-0.6,5.5-2.4,10.2-4.1,11.2c-2,1.1-6.5,1.3-10-1.2
			c-3.4-2.5-4.6-7-3.3-13c0,0,0,0,0,0c0.1-0.6,0.6-1.1,1.2-1.4c8.4-3.8,13.2-5.1,15-5.1c0.3,0,0.5,0,0.6,0.1
			C113.7,42.4,114.4,45.6,113.8,51.2z M23.7,69.8c-0.2-0.4,0.2-1,0.5-1.3c0.4-0.5,0.8-0.7,1.1-0.7c0.1,0,0.1,0,0.2,0
			c0.8,0.1,1.9,1,2.4,2.4c0.1,0.3,0.3,0.9,0.4,1.6C25.9,71.3,24.1,70.6,23.7,69.8z"/>
	</g>
</g>
</svg>
