<svg xmlns="http://www.w3.org/2000/svg" viewBox="0 0 39.67 42.18"><defs><style>.cls-1,.cls-2{fill:none;stroke-miterlimit:10;}.cls-1,.cls-2,.cls-3{stroke:#fff;}.cls-1{stroke-width:3px;}.cls-2{stroke-width:2px;}</style></defs><title>factures</title><g id="Capa_2" data-name="Capa 2"><g id="Capa_1-2" data-name="Capa 1"><path class="cls-1" d="M33.5,30.3v9a1.34,1.34,0,0,1-1.34,1.34H2.84A1.34,1.34,0,0,1,1.5,39.34V2.84A1.34,1.34,0,0,1,2.84,1.5H32.16A1.34,1.34,0,0,1,33.5,2.84v6"/><circle class="cls-2" cx="31.58" cy="20.16" r="7.08"/><path class="cls-3" d="M31.41,23.29v-.82a2.27,2.27,0,0,1-1.23-.36l.19-.54a2.1,2.1,0,0,0,1.16.35c.58,0,1-.33,1-.79s-.32-.72-.92-1c-.82-.32-1.33-.69-1.33-1.4a1.33,1.33,0,0,1,1.22-1.3v-.82H32v.79a2,2,0,0,1,1.05.28l-.2.54a1.92,1.92,0,0,0-1-.28c-.62,0-.86.37-.86.7s.3.63,1,.92,1.25.76,1.25,1.48a1.41,1.41,0,0,1-1.28,1.38v.84Z"/><rect class="cls-2" x="6" y="11.6" width="4.17" height="16.73"/><rect class="cls-2" x="14.17" y="14.17" width="4.17" height="11.93"/></g></g></svg>