<svg id="Capa_1" enable-background="new 0 0 510 510" height="512" viewBox="0 0 510 510" width="512" xmlns="http://www.w3.org/2000/svg"><g><path d="m0 6.516v482h191l56-260-56-222z" fill="#e6f8fc"/><path d="m301 87.516-24-81h-86v482h191v-226.969-150.031z" fill="#d0e8ff"/><path d="m382 111.516-105-105v105z" fill="#9dcfff"/><path d="m269.031 375.5c0 62.399 50.585 112.984 112.984 112.984l15.985-113.968-15.984-112c-62.4 0-112.985 50.585-112.985 112.984z" fill="#e6f8fc"/><path d="m382.016 262.516v225.969c62.4 0 112.984-50.585 112.984-112.984s-50.585-112.985-112.984-112.985z" fill="#d0e8ff"/><path d="m452.516 360.469h42.453v30h-42.453z" fill="#9dcfff"/><path d="m269.062 360.469h42.453v30h-42.453z" fill="#d0e8ff"/><path d="m71 73.516h80v30h-80z" fill="#6354b1"/><path d="m71 133.516h80v30h-80z" fill="#6354b1"/><g fill="#00ddc0"><path d="m71 253.516h30v30h-30z"/><path d="m71 313.516h30v30h-30z"/><path d="m71 373.516h30v30h-30z"/><path d="m131 253.516h30v30h-30z"/><path d="m131 313.516h30v30h-30z"/><path d="m131 373.516h30v30h-30z"/></g><path d="m191 253.516h30v30h-30z" fill="#00b5bd"/><path d="m191 313.516h30v30h-30z" fill="#00b5bd"/><path d="m191 373.516h30v30h-30z" fill="#00b5bd"/><path d="m71 193.516v30h120l6-15-6-15z" fill="#ff637b"/><path d="m191 193.516h120v30h-120z" fill="#e53950"/><path d="m367.016 261.547v42.453h15l2.984-21.484-2.984-20.969z" fill="#d0e8ff"/><path d="m382.016 261.547h15v42.453h-15z" fill="#9dcfff"/><path d="m367.016 334.969v55.531h15l6.984-27.984-6.984-27.547z" fill="#ff712f"/><path d="m422 360.5h-24.984v-25.531h-15v55.531h39.984z" fill="#e53950"/><path d="m367.016 488.422h15l1.984-20.906-1.984-21.547h-15z" fill="#d0e8ff"/><path d="m382.016 445.969h15v42.453h-15z" fill="#9dcfff"/><path d="m284.031 375.5c0-54.028 43.956-97.984 97.984-97.984l8.984-16-8.984-14c-70.57 0-127.984 57.414-127.984 127.984s57.414 127.984 127.984 127.984l9.985-14.968-9.984-15.031c-54.029-.001-97.985-43.957-97.985-97.985z" fill="#6354b1"/><path d="m382.016 247.516v30c54.028 0 97.984 43.956 97.984 97.984s-43.956 97.984-97.984 97.984v30c70.57 0 127.984-57.414 127.984-127.984s-57.414-127.984-127.984-127.984z" fill="#54469c"/></g></svg>