<svg xmlns="http://www.w3.org/2000/svg" viewBox="0 0 16.59 16.5"><defs><style>.cls-1{fill:none;stroke:#fff;stroke-miterlimit:10;stroke-width:1.2px;}.cls-2{fill:#fff;}</style></defs><title>req</title><g id="Capa_2" data-name="Capa 2"><g id="Capa_1-2" data-name="Capa 1"><circle class="cls-1" cx="9.83" cy="7.92" r="3.25"/><path class="cls-2" d="M13.14,11.33a.6.6,0,0,1,.5.25l1.62,2.09a.66.66,0,0,1-.11.9.73.73,0,0,1-.39.13.66.66,0,0,1-.51-.25l-1.61-2.1a.63.63,0,0,1,.5-1m0-1.2h0a1.83,1.83,0,0,0-1.12.38,1.83,1.83,0,0,0-.33,2.57l1.61,2.1a1.81,1.81,0,0,0,1.46.72,1.89,1.89,0,0,0,1.12-.38,1.84,1.84,0,0,0,.33-2.58l-1.62-2.1a1.83,1.83,0,0,0-1.45-.71Z"/><path class="cls-1" d="M8.34,2.84l2.83,0a1.17,1.17,0,0,0,1.17-1.18V.6H2.43A1.83,1.83,0,0,0,.6,2.43V15.9h9.91a1.83,1.83,0,0,0,1.83-1.83v-1.6"/><line class="cls-1" x1="1.79" y1="9.01" x2="4.95" y2="9.01"/><line class="cls-1" x1="1.79" y1="7.03" x2="5.32" y2="7.03"/></g></g></svg>